# Blender v3.0.1 OBJ File: 'cactus.blend'
# www.blender.org
mtllib cactus.mtl
o Cylinder
v 0.098616 0.273243 -1.001263
v -0.151711 1.491902 -1.696532
v 0.560750 0.273138 -0.839221
v 0.505993 1.501569 -1.632346
v 1.105137 1.496838 -1.299457
v 0.877269 0.273242 -0.488880
v 1.412345 1.497300 -0.943699
v 1.001281 0.273273 -0.098617
v 1.629916 1.496830 -0.494430
v 1.698613 1.497300 0.000000
v 1.628358 1.491828 0.509213
v 0.898740 0.272935 0.480386
v 1.299457 1.496838 1.105136
v 0.777624 1.496838 1.518293
v 0.388481 0.273142 0.937877
v -0.115951 0.273253 0.997584
v 0.147680 1.501509 1.699645
v -0.331383 1.497300 1.665975
v -0.646491 0.272935 0.787752
v -0.817105 1.491828 1.497727
v -1.337412 1.496838 1.058887
v -0.962802 0.273273 0.292063
v -1.569314 1.497300 0.650031
v -0.997937 0.273234 -0.098288
v -1.695056 1.496830 0.166948
v -1.665974 1.497300 -0.331383
v -0.887308 0.273243 -0.474276
v -1.495250 1.501509 -0.821481
v -0.480411 0.273026 -0.898786
v -1.201101 1.497300 -1.201100
v -0.777625 1.496838 -1.518293
v -0.167516 3.569690 -1.700813
v 0.494464 3.569690 -1.630027
v 1.058958 3.569690 -1.337502
v 1.490190 3.569690 -0.830445
v 1.665975 3.569690 -0.331383
v 1.695171 3.569690 0.166960
v 1.518395 3.569690 0.777676
v 1.201101 3.569690 1.201101
v 0.830445 3.569690 1.490189
v 0.196962 3.569690 1.694553
v -0.331383 3.569690 1.665975
v -0.777676 3.569690 1.518395
v -1.299543 3.569690 1.105210
v -1.623567 3.569690 0.523768
v -1.698613 3.569690 -0.000000
v -1.630027 3.569690 -0.494464
v -1.337502 3.569690 -1.058958
v -0.830445 3.569690 -1.490189
vt 0.984375 0.500000
vt 0.952153 1.000000
vt 0.906330 0.500000
vt 0.796875 1.000000
vt 0.765625 0.500000
vt 0.830932 0.500000
vt 0.562617 0.500000
vt 0.513783 1.000000
vt 0.481567 0.500000
vt 0.296875 0.500000
vt 0.265625 1.000000
vt 0.234375 0.500000
vt 0.887818 1.000000
vt 0.843750 1.000000
vt 0.014188 1.000000
vt 0.000000 0.500000
vt 0.078105 0.500000
vt 0.218750 1.000000
vt 0.203125 1.000000
vt 0.170033 1.000000
vt 0.750000 1.000000
vt 0.734375 1.000000
vt 0.701755 1.000000
vt 0.312500 1.000000
vt 0.299683 1.000000
vt 0.143433 1.000000
vt 0.125000 1.000000
vt 0.830933 1.000000
vt 0.674683 1.000000
vt 0.637818 1.000000
vt 1.000000 1.000000
vt 0.671855 0.500000
vt 0.575318 1.000000
vt 0.420505 1.000000
vt 0.390605 0.500000
vt 0.468750 1.000000
vt 0.356568 1.000000
vt 0.171875 0.500000
vt 0.468750 1.000000
vt 0.518433 1.000000
vt 0.075318 1.000000
vt 0.521440 0.180667
vt 0.512306 0.273411
vt 0.539358 0.362590
vt 0.639414 0.456999
vt 0.773411 0.487694
vt 0.881531 0.447067
vt 0.958649 0.366318
vt 0.987694 0.273411
vt 0.956951 0.139325
vt 0.840698 0.031493
vt 0.722383 0.012720
vt 0.601077 0.068617
vt 0.462635 0.141138
vt 0.487694 0.226589
vt 0.485388 0.296822
vt 0.458649 0.366318
vt 0.398254 0.437311
vt 0.319333 0.478560
vt 0.226589 0.487694
vt 0.133682 0.458649
vt 0.062689 0.398254
vt 0.021440 0.319333
vt 0.010000 0.250000
vt 0.022667 0.176622
vt 0.068052 0.095211
vt 0.141137 0.037365
vt 0.203178 0.014612
vt 0.277618 0.012720
vt 0.366318 0.041351
vt 0.419706 0.080294
vt 0.580933 1.000000
vt 0.625000 1.000000
vt 0.362183 1.000000
vt 0.015625 1.000000
vt 0.080933 1.000000
vt 0.424683 1.000000
vt 0.893433 1.000000
vt 1.000000 1.000000
vt 0.953125 1.000000
vt 0.250000 1.000000
vt 0.781250 1.000000
vn 0.2843 -0.5111 -0.8112
vn 0.8217 -0.5066 -0.2611
vn 0.1010 -0.5100 0.8542
vn -0.8590 -0.5062 0.0774
vn 0.6491 -0.5004 -0.5730
vn -0.1494 -0.5130 -0.8453
vn -0.9443 -0.0095 -0.3290
vn 0.9906 -0.0094 0.1366
vn -0.9677 -0.0100 0.2519
vn -0.7905 -0.0100 -0.6124
vn 0.9000 -0.0100 -0.4358
vn 0.8753 -0.0161 0.4832
vn 0.0922 -0.4791 -0.8729
vn 0.4237 -0.4779 -0.7695
vn 0.8528 -0.5051 0.1327
vn 0.7866 -0.4856 -0.3814
vn 0.8667 -0.4841 -0.1200
vn 0.5566 -0.5046 0.6600
vn 0.7705 -0.4713 0.4292
vn -0.2986 -0.5043 0.8102
vn 0.2398 -0.4773 0.8454
vn -0.0570 -0.4862 0.8720
vn -0.7379 -0.5059 0.4468
vn -0.5713 -0.4713 0.6719
vn -0.8262 -0.4940 -0.2708
vn -0.8467 -0.4841 0.2209
vn -0.8725 -0.4859 -0.0514
vn -0.6526 -0.5035 -0.5662
vn -0.0617 0.0020 0.9981
vn -0.5255 -0.4824 -0.7008
vn -0.0000 -1.0000 -0.0000
vn -0.2431 -0.4844 -0.8404
vn 0.0000 1.0000 -0.0000
vn 0.6184 -0.0061 0.7859
vn -0.8720 0.0060 0.4895
vn -0.2889 0.0007 -0.9574
vn -0.3209 -0.0017 0.9471
vn 0.7597 0.0060 -0.6502
vn -0.8878 0.0149 -0.4600
vn 0.1017 0.0002 -0.9948
vn 0.2920 0.0005 0.9564
vn 0.9605 0.0149 0.2780
vn -0.6329 -0.0007 0.7742
vn -0.9898 0.0097 0.1418
vn -0.6267 0.0034 -0.7792
vn -0.9952 -0.0000 -0.0979
vn 0.9432 0.0097 -0.3322
vn 0.4734 -0.0010 -0.8808
vn 0.9952 -0.0000 -0.0981
vn 0.8002 0.0102 0.5996
usemtl None
s off
f 1/1/1 4/2/1 3/3/1
f 9/4/2 8/5/2 6/6/2
f 15/7/3 17/8/3 16/9/3
f 22/10/4 25/11/4 24/12/4
f 6/6/5 3/3/5 5/13/5 7/14/5
f 2/15/6 1/16/6 29/17/6
f 26/18/7 47/19/7 28/20/7
f 10/21/8 37/22/8 11/23/8
f 23/24/9 45/25/9 25/11/9
f 28/20/10 48/26/10 30/27/10
f 7/14/11 35/28/11 9/4/11
f 11/23/12 38/29/12 13/30/12
f 2/31/13 4/2/13 1/1/13
f 4/2/14 5/13/14 3/3/14
f 11/23/15 12/32/15 8/5/15 10/21/15
f 7/14/16 9/4/16 6/6/16
f 8/5/17 9/4/17 10/21/17
f 15/7/18 12/32/18 13/30/18 14/33/18
f 11/23/19 13/30/19 12/32/19
f 20/34/20 19/35/20 16/9/20 18/36/20
f 14/33/21 17/8/21 15/7/21
f 16/9/22 17/8/22 18/36/22
f 22/10/23 19/35/23 21/37/23 23/24/23
f 20/34/24 21/37/24 19/35/24
f 27/38/25 24/12/25 26/18/25 28/20/25
f 23/24/26 25/11/26 22/10/26
f 24/12/27 25/11/27 26/18/27
f 30/27/28 29/17/28 27/38/28 28/20/28
f 42/39/29 18/36/29 17/8/29 41/40/29
f 30/27/30 31/41/30 29/17/30
f 22/42/31 24/43/31 27/44/31 29/45/31 1/46/31 3/47/31 6/48/31 8/49/31 12/50/31 15/51/31 16/52/31 19/53/31
f 31/41/32 2/15/32 29/17/32
f 38/54/33 37/55/33 36/56/33 35/57/33 34/58/33 33/59/33 32/60/33 49/61/33 48/62/33 47/63/33 46/64/33 45/65/33 44/66/33 43/67/33 42/68/33 41/69/33 40/70/33 39/71/33
f 40/72/34 14/33/34 13/30/34 39/73/34
f 45/25/35 23/24/35 21/37/35 44/74/35
f 32/75/36 2/15/36 31/41/36 49/76/36
f 43/77/37 20/34/37 18/36/37 42/39/37
f 35/28/38 7/14/38 5/13/38 34/78/38
f 28/20/39 47/19/39 48/26/39
f 32/79/40 33/80/40 4/2/40 2/31/40
f 41/40/41 17/8/41 14/33/41 40/72/41
f 11/23/42 37/22/42 38/29/42
f 44/74/43 21/37/43 20/34/43 43/77/43
f 25/11/44 45/25/44 46/81/44
f 49/76/45 31/41/45 30/27/45 48/26/45
f 46/81/46 47/19/46 26/18/46 25/11/46
f 9/4/47 35/28/47 36/82/47
f 34/78/48 5/13/48 4/2/48 33/80/48
f 36/82/49 37/22/49 10/21/49 9/4/49
f 13/30/50 38/29/50 39/73/50
o Cube_Cube.001
v -0.604113 3.318549 0.604113
v -0.604113 6.196979 0.604113
v -0.604113 3.318549 -0.604113
v -0.604113 6.196979 -0.604113
v 0.604113 3.318549 0.604113
v 0.604113 6.196979 0.604113
v 0.604113 3.318549 -0.604113
v 0.604113 6.196979 -0.604113
v -0.386795 7.197875 0.386795
v -0.386795 7.197875 -0.386795
v 0.386795 7.197875 -0.386795
v 0.386795 7.197875 0.386795
vt 0.375000 0.000000
vt 0.625000 0.000000
vt 0.625000 0.250000
vt 0.375000 0.250000
vt 0.625000 0.500000
vt 0.375000 0.500000
vt 0.625000 0.750000
vt 0.375000 0.750000
vt 0.625000 1.000000
vt 0.375000 1.000000
vt 0.125000 0.500000
vt 0.125000 0.750000
vt 0.625000 0.750000
vt 0.625000 1.000000
vt 0.625000 0.500000
vt 0.875000 0.500000
vt 0.875000 0.750000
vt 0.625000 0.250000
vt 0.625000 0.000000
vn -1.0000 0.0000 0.0000
vn 0.0000 0.0000 -1.0000
vn 1.0000 0.0000 0.0000
vn 0.0000 0.0000 1.0000
vn 0.0000 -1.0000 0.0000
vn 0.0000 0.2122 0.9772
vn 0.0000 1.0000 0.0000
vn 0.0000 0.2122 -0.9772
vn 0.9772 0.2122 0.0000
vn -0.9772 0.2122 0.0000
usemtl None
s off
f 50/83/51 51/84/51 53/85/51 52/86/51
f 52/86/52 53/85/52 57/87/52 56/88/52
f 56/88/53 57/87/53 55/89/53 54/90/53
f 54/90/54 55/89/54 51/91/54 50/92/54
f 52/93/55 56/88/55 54/90/55 50/94/55
f 51/91/56 55/89/56 61/95/56 58/96/56
f 60/97/57 59/98/57 58/99/57 61/95/57
f 57/87/58 53/85/58 59/100/58 60/97/58
f 55/89/59 57/87/59 60/97/59 61/95/59
f 53/85/60 51/84/60 58/101/60 59/100/60
o Cube.001_Cube.002
v -0.439456 4.160582 0.529931
v -0.439456 5.018887 1.315442
v -0.439456 5.590845 0.417126
v -0.439456 6.270095 1.090455
v 0.439456 4.160582 0.529931
v 0.439456 5.018887 1.315442
v 0.439456 5.590845 0.417126
v 0.439456 6.270095 1.090455
v -0.281370 5.971329 1.775289
v -0.281370 6.358124 1.512789
v 0.281370 6.358124 1.512789
v 0.281370 5.971329 1.775289
vt 0.375000 0.000000
vt 0.625000 0.000000
vt 0.625000 0.250000
vt 0.375000 0.250000
vt 0.625000 0.500000
vt 0.375000 0.500000
vt 0.625000 0.750000
vt 0.375000 0.750000
vt 0.625000 1.000000
vt 0.375000 1.000000
vt 0.125000 0.500000
vt 0.125000 0.750000
vt 0.625000 0.750000
vt 0.625000 1.000000
vt 0.625000 0.500000
vt 0.875000 0.500000
vt 0.875000 0.750000
vt 0.625000 0.250000
vt 0.625000 0.000000
vn -1.0000 0.0000 0.0000
vn 0.0000 0.7040 -0.7102
vn 1.0000 0.0000 0.0000
vn 0.0000 -0.6751 0.7377
vn 0.0000 -0.0786 -0.9969
vn 0.0000 -0.4348 0.9005
vn 0.0000 0.5615 0.8274
vn 0.0000 0.9790 -0.2040
vn 0.9638 0.0761 0.2557
vn -0.9638 0.0761 0.2557
usemtl None
s off
f 62/102/61 63/103/61 65/104/61 64/105/61
f 64/105/62 65/104/62 69/106/62 68/107/62
f 68/107/63 69/106/63 67/108/63 66/109/63
f 66/109/64 67/108/64 63/110/64 62/111/64
f 64/112/65 68/107/65 66/109/65 62/113/65
f 63/110/66 67/108/66 73/114/66 70/115/66
f 72/116/67 71/117/67 70/118/67 73/114/67
f 69/106/68 65/104/68 71/119/68 72/116/68
f 67/108/69 69/106/69 72/116/69 73/114/69
f 65/104/70 63/103/70 70/120/70 71/119/70
o Cube.002_Cube.003
v 0.439456 5.594345 -0.593702
v 0.439456 6.038169 -1.104789
v 0.439456 6.528228 -0.307995
v 0.439456 6.872401 -0.753811
v -0.439456 5.594345 -0.593702
v -0.439456 6.038169 -1.104789
v -0.439456 6.528228 -0.307995
v -0.439456 6.872401 -0.753810
v 0.281370 6.586951 -1.342489
v 0.281370 6.871212 -1.079636
v -0.281370 6.871212 -1.079636
v -0.281371 6.586951 -1.342489
vt 0.375000 0.000000
vt 0.625000 0.000000
vt 0.625000 0.250000
vt 0.375000 0.250000
vt 0.625000 0.500000
vt 0.375000 0.500000
vt 0.625000 0.750000
vt 0.375000 0.750000
vt 0.625000 1.000000
vt 0.375000 1.000000
vt 0.125000 0.500000
vt 0.125000 0.750000
vt 0.625000 0.750000
vt 0.625000 1.000000
vt 0.625000 0.500000
vt 0.875000 0.500000
vt 0.875000 0.750000
vt 0.625000 0.250000
vt 0.625000 0.000000
vn 1.0000 0.0000 -0.0000
vn 0.0000 0.7916 0.6111
vn -1.0000 0.0000 0.0000
vn -0.0000 -0.7550 -0.6557
vn 0.0000 -0.2925 0.9563
vn -0.0000 -0.3975 -0.9176
vn -0.0000 0.6789 -0.7342
vn -0.0000 1.0000 -0.0036
vn -0.9228 0.1853 -0.3377
vn 0.9228 0.1853 -0.3377
usemtl None
s off
f 74/121/71 75/122/71 77/123/71 76/124/71
f 76/124/72 77/123/72 81/125/72 80/126/72
f 80/126/73 81/125/73 79/127/73 78/128/73
f 78/128/74 79/127/74 75/129/74 74/130/74
f 76/131/75 80/126/75 78/128/75 74/132/75
f 75/129/76 79/127/76 85/133/76 82/134/76
f 84/135/77 83/136/77 82/137/77 85/133/77
f 81/125/78 77/123/78 83/138/78 84/135/78
f 79/127/79 81/125/79 84/135/79 85/133/79
f 77/123/80 75/122/80 82/139/80 83/138/80
