{
    "asset" : {
        "generator" : "Khronos glTF Blender I/O v1.7.33",
        "version" : "2.0"
    },
    "scene" : 0,
    "scenes" : [
        {
            "name" : "Scene",
            "nodes" : [
                0,
                1,
                2,
                3
            ]
        }
    ],
    "nodes" : [
        {
            "mesh" : 0,
            "name" : "Cube.005",
            "scale" : [
                1.4202996492385864,
                1.4202996492385864,
                1.4202996492385864
            ],
            "translation" : [
                0.36467161774635315,
                0,
                0
            ]
        },
        {
            "mesh" : 1,
            "name" : "Cube.006",
            "scale" : [
                0.25,
                1.5384502410888672,
                0.25
            ],
            "translation" : [
                -0.03242048621177673,
                2.429302215576172,
                0
            ]
        },
        {
            "mesh" : 2,
            "name" : "Cube.007",
            "rotation" : [
                0.4842175543308258,
                0,
                0,
                0.8749476075172424
            ],
            "scale" : [
                0.13869386911392212,
                1.538450002670288,
                0.502302348613739
            ],
            "translation" : [
                -0.03242048621177673,
                4.521859169006348,
                1.4343533515930176
            ]
        },
        {
            "mesh" : 3,
            "name" : "Cube.008",
            "rotation" : [
                0,
                0.8749476075172424,
                -0.4842175543308258,
                -1.4254706570682174e-07
            ],
            "scale" : [
                0.13869386911392212,
                1.538450002670288,
                0.502302348613739
            ],
            "translation" : [
                -0.03242048621177673,
                4.546170234680176,
                -1.507286548614502
            ]
        }
    ],
    "materials" : [
        {
            "doubleSided" : true,
            "name" : "Material.007",
            "pbrMetallicRoughness" : {
                "baseColorFactor" : [
                    0.10047923773527145,
                    0.027812613174319267,
                    0.013207469135522842,
                    1
                ],
                "metallicFactor" : 0,
                "roughnessFactor" : 0.4000000059604645
            }
        },
        {
            "doubleSided" : true,
            "name" : "Material.008",
            "pbrMetallicRoughness" : {
                "baseColorFactor" : [
                    0.5029234886169434,
                    1,
                    0.5418357849121094,
                    1
                ],
                "metallicFactor" : 0,
                "roughnessFactor" : 0.4000000059604645
            }
        }
    ],
    "meshes" : [
        {
            "name" : "Cube.007",
            "primitives" : [
                {
                    "attributes" : {
                        "POSITION" : 0,
                        "NORMAL" : 1,
                        "TEXCOORD_0" : 2
                    },
                    "indices" : 3,
                    "material" : 0
                }
            ]
        },
        {
            "name" : "Cube.008",
            "primitives" : [
                {
                    "attributes" : {
                        "POSITION" : 4,
                        "NORMAL" : 5,
                        "TEXCOORD_0" : 6
                    },
                    "indices" : 7,
                    "material" : 1
                }
            ]
        },
        {
            "name" : "Cube.009",
            "primitives" : [
                {
                    "attributes" : {
                        "POSITION" : 8,
                        "NORMAL" : 9,
                        "TEXCOORD_0" : 10
                    },
                    "indices" : 11,
                    "material" : 1
                }
            ]
        },
        {
            "name" : "Cube.010",
            "primitives" : [
                {
                    "attributes" : {
                        "POSITION" : 12,
                        "NORMAL" : 13,
                        "TEXCOORD_0" : 14
                    },
                    "indices" : 15,
                    "material" : 1
                }
            ]
        }
    ],
    "accessors" : [
        {
            "bufferView" : 0,
            "componentType" : 5126,
            "count" : 57,
            "max" : [
                1.6582908630371094,
                1.283589243888855,
                1.5595554113388062
            ],
            "min" : [
                -2.1448535919189453,
                0.001746535301208496,
                -1.8774173259735107
            ],
            "type" : "VEC3"
        },
        {
            "bufferView" : 1,
            "componentType" : 5126,
            "count" : 57,
            "type" : "VEC3"
        },
        {
            "bufferView" : 2,
            "componentType" : 5126,
            "count" : 57,
            "type" : "VEC2"
        },
        {
            "bufferView" : 3,
            "componentType" : 5123,
            "count" : 96,
            "type" : "SCALAR"
        },
        {
            "bufferView" : 4,
            "componentType" : 5126,
            "count" : 24,
            "max" : [
                1,
                0.9999999403953552,
                1
            ],
            "min" : [
                -1,
                -1,
                -1
            ],
            "type" : "VEC3"
        },
        {
            "bufferView" : 5,
            "componentType" : 5126,
            "count" : 24,
            "type" : "VEC3"
        },
        {
            "bufferView" : 6,
            "componentType" : 5126,
            "count" : 24,
            "type" : "VEC2"
        },
        {
            "bufferView" : 7,
            "componentType" : 5123,
            "count" : 36,
            "type" : "SCALAR"
        },
        {
            "bufferView" : 8,
            "componentType" : 5126,
            "count" : 40,
            "max" : [
                2.126038074493408,
                0.8725153803825378,
                1.270310401916504
            ],
            "min" : [
                -2.126038074493408,
                -0.9994366765022278,
                -2.0659608840942383
            ],
            "type" : "VEC3"
        },
        {
            "bufferView" : 9,
            "componentType" : 5126,
            "count" : 40,
            "type" : "VEC3"
        },
        {
            "bufferView" : 10,
            "componentType" : 5126,
            "count" : 40,
            "type" : "VEC2"
        },
        {
            "bufferView" : 11,
            "componentType" : 5123,
            "count" : 60,
            "type" : "SCALAR"
        },
        {
            "bufferView" : 12,
            "componentType" : 5126,
            "count" : 40,
            "max" : [
                2.126040458679199,
                0.7268310785293579,
                0.9240463972091675
            ],
            "min" : [
                -2.126037836074829,
                -0.9994366765022278,
                -1.6460380554199219
            ],
            "type" : "VEC3"
        },
        {
            "bufferView" : 13,
            "componentType" : 5126,
            "count" : 40,
            "type" : "VEC3"
        },
        {
            "bufferView" : 14,
            "componentType" : 5126,
            "count" : 40,
            "type" : "VEC2"
        },
        {
            "bufferView" : 15,
            "componentType" : 5123,
            "count" : 60,
            "type" : "SCALAR"
        }
    ],
    "bufferViews" : [
        {
            "buffer" : 0,
            "byteLength" : 684,
            "byteOffset" : 0
        },
        {
            "buffer" : 0,
            "byteLength" : 684,
            "byteOffset" : 684
        },
        {
            "buffer" : 0,
            "byteLength" : 456,
            "byteOffset" : 1368
        },
        {
            "buffer" : 0,
            "byteLength" : 192,
            "byteOffset" : 1824
        },
        {
            "buffer" : 0,
            "byteLength" : 288,
            "byteOffset" : 2016
        },
        {
            "buffer" : 0,
            "byteLength" : 288,
            "byteOffset" : 2304
        },
        {
            "buffer" : 0,
            "byteLength" : 192,
            "byteOffset" : 2592
        },
        {
            "buffer" : 0,
            "byteLength" : 72,
            "byteOffset" : 2784
        },
        {
            "buffer" : 0,
            "byteLength" : 480,
            "byteOffset" : 2856
        },
        {
            "buffer" : 0,
            "byteLength" : 480,
            "byteOffset" : 3336
        },
        {
            "buffer" : 0,
            "byteLength" : 320,
            "byteOffset" : 3816
        },
        {
            "buffer" : 0,
            "byteLength" : 120,
            "byteOffset" : 4136
        },
        {
            "buffer" : 0,
            "byteLength" : 480,
            "byteOffset" : 4256
        },
        {
            "buffer" : 0,
            "byteLength" : 480,
            "byteOffset" : 4736
        },
        {
            "buffer" : 0,
            "byteLength" : 320,
            "byteOffset" : 5216
        },
        {
            "buffer" : 0,
            "byteLength" : 120,
            "byteOffset" : 5536
        }
    ],
    "buffers" : [
        {
            "byteLength" : 5656,
            "uri" : "data:application/octet-stream;base64,"
        }
    ]
}
